# xmcd
#
# Track frame offsets: 
#        150
#        13042
#        24262
#        32652
#        43690
#        54602
#        67910
#        78720
#        86937
#        96825
#        108425
#        119022
#        132387
#        142962
#        153880
#        165172
#        176515
#        187802
#        198990
#        210025
#        222080
#        233615
#        243497
#        256302
#        266590
#        278162
#        290225
#        301045
#        313455
#        324810
#        336300
#
# Disc length: 4630 seconds
#
# Revision: 3
# Processed by: cddbd v1.5.2PL0 Copyright (c) Steve Scherf et al.
# Submitted via: ExactAudioCopyFreeDBPlugin 1.0
#
DISCID=b112141f
DTITLE=Willie Nelson - The Early Years
DYEAR=1994
DGENRE=Country
TTITLE0=How Long Is Forever (Version #2)
TTITLE1=You Took My Happy Away (Version #1)
TTITLE2=Roly Poly
TTITLE3=Half A Man
TTITLE4=Lonely Little Mansion
TTITLE5=The Last Letter
TTITLE6=Second Fiddle
TTITLE7=Take My Word (Version #2)
TTITLE8=Right Or Wrong
TTITLE9=Feed It A Memory
TTITLE10=Let Me Talk To You
TTITLE11=The Way You See Me
TTITLE12=The Things I Might Have Been
TTITLE13=Home Motel
TTITLE14=Opportunity To Cry
TTITLE15=You Took My Happy Away (Version #2)
TTITLE16=I Hope So
TTITLE17=River Boy
TTITLE18=At The Bottom
TTITLE19=Cold War With You
TTITLE20=Seasons Of My Heart
TTITLE21=Blue Must Have Been The Color Of The Blues
TTITLE22=Am I Blue
TTITLE23=There'll Be No Teardrops Tonight
TTITLE24=Take Me As I Am (Or Let Me Go)
TTITLE25=Tomorrow Night
TTITLE26=I'll Walk Alone
TTITLE27=You Wouldn't Even Cross The Street (Overdubbed Version)
TTITLE28=I Hope So (Overdubbed Version)
TTITLE29=River Boy (Overdubbed Version)
TTITLE30=At The Bottom (Overdubbed Version)
EXTD=
EXTT0=
EXTT1=
EXTT2=
EXTT3=
EXTT4=
EXTT5=
EXTT6=
EXTT7=
EXTT8=
EXTT9=
EXTT10=
EXTT11=
EXTT12=
EXTT13=
EXTT14=
EXTT15=
EXTT16=
EXTT17=
EXTT18=
EXTT19=
EXTT20=
EXTT21=
EXTT22=
EXTT23=
EXTT24=
EXTT25=
EXTT26=
EXTT27=
EXTT28=
EXTT29=
EXTT30=
PLAYORDER=
